name D:\school\WTK\thesis\model\3dpredictsim\Results\MidTarsalJoint\Fal_s1_bCst_PF_tanh_ls144_MT_nl_Gefen2001_Tmtp_ig24.mot
datacolumns 128
datarows 4
range 1.18562477 1.22119351
endheader
time	pelvis_tilt	pelvis_list	pelvis_rotation	pelvis_tx	pelvis_ty	pelvis_tz	hip_flexion_l	hip_adduction_l	hip_rotation_l	hip_flexion_r	hip_adduction_r	hip_rotation_r	knee_angle_l	knee_angle_r	ankle_angle_l	ankle_angle_r	subtalar_angle_l	subtalar_angle_r	tmt_angle_l	tmt_angle_r	mtp_angle_l	mtp_angle_r	lumbar_extension	lumbar_bending	lumbar_rotation	arm_flex_l	arm_add_l	arm_rot_l	arm_flex_r	arm_add_r	arm_rot_r	elbow_flex_l	elbow_flex_r	pro_sup_l	pro_sup_r	glut_med1_l/activation	glut_med2_l/activation	glut_med3_l/activation	glut_min1_l/activation	glut_min2_l/activation	glut_min3_l/activation	semimem_l/activation	semiten_l/activation	bifemlh_l/activation	bifemsh_l/activation	sar_l/activation	add_long_l/activation	add_brev_l/activation	add_mag1_l/activation	add_mag2_l/activation	add_mag3_l/activation	tfl_l/activation	pect_l/activation	grac_l/activation	glut_max1_l/activation	glut_max2_l/activation	glut_max3_l/activation	iliacus_l/activation	psoas_l/activation	quad_fem_l/activation	gem_l/activation	peri_l/activation	rect_fem_l/activation	vas_med_l/activation	vas_int_l/activation	vas_lat_l/activation	med_gas_l/activation	lat_gas_l/activation	soleus_l/activation	tib_post_l/activation	flex_dig_l/activation	flex_hal_l/activation	tib_ant_l/activation	per_brev_l/activation	per_long_l/activation	per_tert_l/activation	ext_dig_l/activation	ext_hal_l/activation	ercspn_l/activation	intobl_l/activation	extobl_l/activation	glut_med1_r/activation	glut_med2_r/activation	glut_med3_r/activation	glut_min1_r/activation	glut_min2_r/activation	glut_min3_r/activation	semimem_r/activation	semiten_r/activation	bifemlh_r/activation	bifemsh_r/activation	sar_r/activation	add_long_r/activation	add_brev_r/activation	add_mag1_r/activation	add_mag2_r/activation	add_mag3_r/activation	tfl_r/activation	pect_r/activation	grac_r/activation	glut_max1_r/activation	glut_max2_r/activation	glut_max3_r/activation	iliacus_r/activation	psoas_r/activation	quad_fem_r/activation	gem_r/activation	peri_r/activation	rect_fem_r/activation	vas_med_r/activation	vas_int_r/activation	vas_lat_r/activation	med_gas_r/activation	lat_gas_r/activation	soleus_r/activation	tib_post_r/activation	flex_dig_r/activation	flex_hal_r/activation	tib_ant_r/activation	per_brev_r/activation	per_long_r/activation	per_tert_r/activation	ext_dig_r/activation	ext_hal_r/activation	ercspn_r/activation	intobl_r/activation	extobl_r/activation	
          1.18562477	         -2.92940911	         -2.68388061	          7.10535017	          1.48203096	          0.91937533	         -0.00289728	        -15.36467738	         -2.33619790	          6.36464989	         27.89609712	          3.84989865	         -2.23124146	        -12.71077182	         -8.05792474	         -5.64863183	          7.16563061	         12.75217093	         -7.61497175	          6.47438623	         -6.49062152	         14.62373367	         14.97143337	         -1.54177907	          0.60793371	         -2.59361132	          5.65321994	        -13.45866236	         17.68751537	         -7.49155454	        -13.48237476	          6.66369911	         39.66781185	         15.60807606	         86.51662706	         86.51662706	          0.15571189	          0.08302160	          0.06650910	          0.17555536	          0.14748873	          0.10282391	          0.05002842	          0.05000646	          0.05000400	          0.05000269	          0.09912786	          0.05000256	          0.05000255	          0.05000672	          0.05001834	          0.05986532	          0.27210646	          0.05000433	          0.05000560	          0.05004677	          0.05003855	          0.05003454	          0.38911107	          0.57934459	          0.05000233	          0.05002087	          0.06193051	          0.35220440	          0.16076103	          0.15770204	          0.14581016	          0.23160092	          0.31957227	          0.27911920	          0.19906961	          0.14963122	          0.20931600	          0.05000206	          0.05000377	          0.15327453	          0.05000269	          0.05000131	          0.05000615	          0.05000022	          0.07171279	          0.07811379	          0.05000013	          0.05000035	          0.07201263	          0.05000034	          0.05000039	          0.05000050	          0.21216147	          0.10302449	          0.13221770	          0.06949755	          0.05000579	          0.12006909	          0.25667989	          0.24373705	          0.16944673	          0.09867703	          0.05000216	          0.07203735	          0.13129384	          0.05876956	          0.10388298	          0.12037305	          0.05000192	          0.07171297	          0.54245486	          0.12326071	          0.07322463	          0.05989132	          0.06853568	          0.06676598	          0.05994398	          0.07090972	          0.07171255	          0.06691410	          0.05988094	          0.05924228	          0.05988221	          0.44613815	          0.20045712	          0.23364097	          0.17756365	          0.42207437	          0.19777147	          0.05000004	          0.11850769	          0.10285526	
          1.19748102	         -2.93017569	         -2.77862214	          7.40947683	          1.50047818	          0.91802663	         -0.00274669	        -15.79158685	         -2.73427878	          6.23479637	         27.14100350	          4.13496022	         -1.95863162	        -13.59464657	         -8.71358077	         -5.94021167	          6.55759195	         13.45123806	         -7.84126387	          4.21420414	         -6.69752642	         17.27594787	         15.08263618	         -1.28898963	          0.78319076	         -2.66714687	          5.23192367	        -13.46626797	         17.86786891	         -8.46326613	        -13.47502166	          6.74672018	         40.87869436	         15.17988126	         86.51662706	         86.51662706	          0.26674271	          0.07171434	          0.06833847	          0.35041404	          0.12316083	          0.08585997	          0.05000580	          0.05000110	          0.05000093	          0.05000348	          0.08588540	          0.05000259	          0.05000340	          0.05000250	          0.05000465	          0.05000250	          0.22948413	          0.05006385	          0.05000679	          0.05001769	          0.05000934	          0.05000449	          0.32490853	          0.59102200	          0.05000445	          0.05001061	          0.05171461	          0.29409101	          0.14740950	          0.14671862	          0.14089764	          0.19338718	          0.26684413	          0.23688807	          0.18005946	          0.12494389	          0.17478104	          0.05000020	          0.09928238	          0.16630703	          0.05000175	          0.05000048	          0.05000137	          0.05000025	          0.05988024	          0.06522510	          0.22747959	          0.21102502	          0.24164551	          0.26342430	          0.18701717	          0.18615262	          0.17715522	          0.08602833	          0.11040220	          0.08618285	          0.05987262	          0.10025805	          0.21432813	          0.20352109	          0.14148927	          0.11625019	          0.05000188	          0.06015491	          0.10963268	          0.05000217	          0.11552963	          0.10051314	          0.05614454	          0.05988063	          0.45295025	          0.10292385	          0.17299869	          0.05000936	          0.05722759	          0.05574990	          0.05005351	          0.05920973	          0.05988017	          0.05587335	          0.05000085	          0.05000161	          0.05000269	          0.52881458	          0.35235654	          0.19752963	          0.35225026	          0.53960641	          0.25133231	          0.05000056	          0.14752063	          0.08588423	
          1.20933727	         -2.93017579	         -2.87892448	          7.66609219	          1.51903737	          0.91679498	         -0.00256782	        -16.14990256	         -3.12626179	          6.12088488	         26.39536156	          4.39734671	         -1.69049910	        -14.54550070	         -9.34995093	         -6.28834115	          5.85729242	         14.08712156	         -8.07363262	          1.64802577	         -6.61593079	         20.17952417	         15.16298148	         -1.04217265	          0.97796786	         -2.73153422	          4.75932440	        -13.47625775	         17.99128703	         -9.41112229	        -13.47106793	          6.86687448	         42.02699143	         14.79793888	         86.51662706	         86.51662706	          0.25873996	          0.05988281	          0.05787880	          0.29344731	          0.10284046	          0.07169391	          0.05000565	          0.05000084	          0.05000076	          0.05000124	          0.07171644	          0.05000107	          0.05000083	          0.05000126	          0.05000269	          0.05000221	          0.19162006	          0.05000472	          0.05000261	          0.05002815	          0.05001343	          0.05000442	          0.27129911	          0.57271655	          0.05000182	          0.05001033	          0.05000233	          0.24556620	          0.14751553	          0.14751550	          0.14554216	          0.16147845	          0.22281517	          0.19780168	          0.15035085	          0.10432907	          0.14594302	          0.05000180	          0.08290208	          0.16784573	          0.05000353	          0.07050926	          0.05000459	          0.06153221	          0.05000013	          0.05446306	          0.32433677	          0.32104505	          0.34684334	          0.21996235	          0.21719846	          0.24027196	          0.14792482	          0.07183459	          0.09218612	          0.07196308	          0.05000317	          0.08371576	          0.17896435	          0.16994104	          0.11814640	          0.13964021	          0.05000391	          0.05023202	          0.09154454	          0.19818149	          0.17269229	          0.12852418	          0.05000054	          0.05000091	          0.37821391	          0.08594242	          0.14445671	          0.05000071	          0.07154389	          0.09440415	          0.07266739	          0.05000019	          0.05000056	          0.05000007	          0.05000056	          0.05000225	          0.05000188	          0.59805864	          0.31981338	          0.20965738	          0.46493560	          0.54994946	          0.32084037	          0.07163610	          0.12317986	          0.07171342	
          1.22119351	         -2.93006803	         -2.98300870	          7.87747735	          1.53751967	          0.91583307	         -0.00235183	        -16.38507903	         -3.50252804	          6.01931499	         25.73404869	          4.68251092	         -1.42843433	        -15.61526150	        -10.10821057	         -6.81762876	          5.15320090	         14.64859091	         -8.30658357	         -1.10760844	         -6.66945251	         23.23528246	         15.20951116	         -0.81423081	          1.19252176	         -2.78850704	          4.28048754	        -13.48393084	         18.09944120	        -10.30017705	        -13.46568147	          6.99408971	         43.05384434	         14.45160571	         86.51662706	         86.51662706	          0.28962653	          0.05000267	          0.05000040	          0.24503157	          0.08587234	          0.05986500	          0.05000629	          0.05000068	          0.05000062	          0.05000058	          0.05988420	          0.05000977	          0.08017965	          0.05002024	          0.05004301	          0.09392759	          0.16000325	          0.05003919	          0.05000217	          0.05001010	          0.05000723	          0.05000609	          0.22653507	          0.52023298	          0.05000064	          0.05000249	          0.05000075	          0.20504793	          0.12317587	          0.12317586	          0.12152804	          0.13483462	          0.18605091	          0.16516451	          0.12554344	          0.08711543	          0.12186301	          0.06641398	          0.11359582	          0.14247031	          0.05006520	          0.12446142	          0.05002834	          0.07950097	          0.05000015	          0.05000016	          0.39652755	          0.37305024	          0.38162522	          0.18367804	          0.18143449	          0.20063936	          0.12351752	          0.06670827	          0.07697815	          0.06008967	          0.05000306	          0.06990310	          0.14943585	          0.14190291	          0.11864317	          0.16972453	          0.05000214	          0.05000718	          0.07644254	          0.24537432	          0.21190270	          0.17045955	          0.05000060	          0.05000061	          0.31580908	          0.07176305	          0.12062315	          0.05000056	          0.13495277	          0.13986090	          0.11226389	          0.05000020	          0.05000042	          0.05000007	          0.05000034	          0.05000078	          0.05000079	          0.64033154	          0.30773136	          0.19019558	          0.52137671	          0.60046919	          0.33512800	          0.08042401	          0.10285528	          0.05988080	
